REM DIRINDEX 1\4,1\2\5,1\2\6,1\3\7\9,1\3\7\10,1\3\8\11,1\3\8\12
REM DIRNAME folder01,folder02,folder03,folder04,folder05,folder06,folder07,folder08,folder09,folder10,folder11,folder12
TITLE ""
FILE "CD-ATrack22.mp3" MP3
  TRACK 01 AUDIO
    TITLE "0:"
    INDEX 01 00:00:00
  TRACK 02 AUDIO
    TITLE "6:cjc051_0756"
    INDEX 01 00:00:19
  TRACK 03 AUDIO
    TITLE "5:cjc051_0757"
    INDEX 01 00:01:05
  TRACK 04 AUDIO
    TITLE "6:cjc051_0758"
    INDEX 01 00:02:10
  TRACK 05 AUDIO
    TITLE "5:cjc051_0759"
    INDEX 01 00:03:02
  TRACK 06 AUDIO
    TITLE "6:cjc051_0760"
    INDEX 01 00:04:01
  TRACK 07 AUDIO
    TITLE "5:cjc051_0761"
    INDEX 01 00:04:60
  TRACK 08 AUDIO
    TITLE "6:cjc051_0762"
    INDEX 01 00:05:65
  TRACK 09 AUDIO
    TITLE "5:cjc051_0763"
    INDEX 01 00:06:65
  TRACK 10 AUDIO
    TITLE "6:cjc051_0764"
    INDEX 01 00:07:64
  TRACK 11 AUDIO
    TITLE "5:cjc051_0765"
    INDEX 01 00:08:58
  TRACK 12 AUDIO
    TITLE "6:cjc051_0766"
    INDEX 01 00:09:53
  TRACK 13 AUDIO
    TITLE "5:cjc051_0767"
    INDEX 01 00:10:39
  TRACK 14 AUDIO
    TITLE "6:cjc051_0768"
    INDEX 01 00:11:39
  TRACK 15 AUDIO
    TITLE "5:cjc051_0769"
    INDEX 01 00:12:32
  TRACK 16 AUDIO
    TITLE "6:cjc051_0770"
    INDEX 01 00:13:39
  TRACK 17 AUDIO
    TITLE "5:cjc051_0771"
    INDEX 01 00:14:27
  TRACK 18 AUDIO
    TITLE "6:cjc051_0772"
    INDEX 01 00:15:36
  TRACK 19 AUDIO
    TITLE "5:cjc051_0773"
    INDEX 01 00:16:30
  TRACK 20 AUDIO
    TITLE "6:cjc051_0774"
    INDEX 01 00:17:21
  TRACK 21 AUDIO
    TITLE "5:cjc051_0775"
    INDEX 01 00:18:09
  TRACK 22 AUDIO
    TITLE "6:cjc051_0776"
    INDEX 01 00:19:13
  TRACK 23 AUDIO
    TITLE "5:cjc051_0777"
    INDEX 01 00:20:00
  TRACK 24 AUDIO
    TITLE "6:cjc051_0778"
    INDEX 01 00:20:71
  TRACK 25 AUDIO
    TITLE "5:cjc051_0779"
    INDEX 01 00:22:09
  TRACK 26 AUDIO
    TITLE "6:cjc051_0780"
    INDEX 01 00:23:14
  TRACK 27 AUDIO
    TITLE "5:cjc051_0781"
    INDEX 01 00:24:20
  TRACK 28 AUDIO
    TITLE "6:cjc051_0782"
    INDEX 01 00:25:25
  TRACK 29 AUDIO
    TITLE "5:cjc051_0783"
    INDEX 01 00:26:40
  TRACK 30 AUDIO
    TITLE "6:cjc051_0784"
    INDEX 01 00:27:49
  TRACK 31 AUDIO
    TITLE "5:cjc051_0785"
    INDEX 01 00:28:59
  TRACK 32 AUDIO
    TITLE "6:cjc051_0786"
    INDEX 01 00:29:70
  TRACK 33 AUDIO
    TITLE "5:cjc051_0787"
    INDEX 01 00:30:73
  TRACK 34 AUDIO
    TITLE "6:cjc051_0788"
    INDEX 01 00:32:09
  TRACK 35 AUDIO
    TITLE "5:cjc051_0789"
    INDEX 01 00:33:17
  TRACK 36 AUDIO
    TITLE "6:cjc051_0790"
    INDEX 01 00:34:38
  TRACK 37 AUDIO
    TITLE "5:cjc051_0791"
    INDEX 01 00:35:55
  TRACK 38 AUDIO
    TITLE "6:cjc051_0792"
    INDEX 01 00:37:07
  TRACK 39 AUDIO
    TITLE "5:cjc051_0793"
    INDEX 01 00:38:20
  TRACK 40 AUDIO
    TITLE "6:cjc051_0794"
    INDEX 01 00:39:33
  TRACK 41 AUDIO
    TITLE "5:cjc051_0795"
    INDEX 01 00:40:44
  TRACK 42 AUDIO
    TITLE "6:cjc051_0796"
    INDEX 01 00:41:63
  TRACK 43 AUDIO
    TITLE "5:cjc051_0797"
    INDEX 01 00:42:65
  TRACK 44 AUDIO
    TITLE "6:cjc051_0798"
    INDEX 01 00:43:64
  TRACK 45 AUDIO
    TITLE "5:cjc051_0799"
    INDEX 01 00:45:14
  TRACK 46 AUDIO
    TITLE "6:cjc051_0800"
    INDEX 01 00:46:06
  TRACK 47 AUDIO
    TITLE "5:cjc051_0801"
    INDEX 01 00:47:30
  TRACK 48 AUDIO
    TITLE "6:cjc051_0802"
    INDEX 01 00:48:26
  TRACK 49 AUDIO
    TITLE "5:cjc051_0803"
    INDEX 01 00:49:31
  TRACK 50 AUDIO
    TITLE "6:cjc051_0804"
    INDEX 01 00:50:31
  TRACK 51 AUDIO
    TITLE "5:cjc051_0805"
    INDEX 01 00:51:46
  TRACK 52 AUDIO
    TITLE "6:cjc051_0806"
    INDEX 01 00:52:53
  TRACK 53 AUDIO
    TITLE "5:cjc051_0807"
    INDEX 01 00:53:68
  TRACK 54 AUDIO
    TITLE "6:cjc051_0808"
    INDEX 01 00:55:08
  TRACK 55 AUDIO
    TITLE "5:cjc051_0809"
    INDEX 01 00:56:18
  TRACK 56 AUDIO
    TITLE "6:cjc051_0810"
    INDEX 01 00:57:15
  TRACK 57 AUDIO
    TITLE "5:cjc051_0811"
    INDEX 01 00:58:30
  TRACK 58 AUDIO
    TITLE "6:cjc051_0812"
    INDEX 01 00:59:38
  TRACK 59 AUDIO
    TITLE "5:cjc051_0813"
    INDEX 01 01:00:33
  TRACK 60 AUDIO
    TITLE "6:cjc051_0814"
    INDEX 01 01:01:33
  TRACK 61 AUDIO
    TITLE "5:cjc051_0815"
    INDEX 01 01:02:24
  TRACK 62 AUDIO
    TITLE "6:cjc051_0816"
    INDEX 01 01:03:33
  TRACK 63 AUDIO
    TITLE "5:cjc051_0817"
    INDEX 01 01:04:39
  TRACK 64 AUDIO
    TITLE "6:cjc051_0818"
    INDEX 01 01:05:50
  TRACK 65 AUDIO
    TITLE "5:cjc051_0819"
    INDEX 01 01:06:55
  TRACK 66 AUDIO
    TITLE "6:cjc051_0820"
    INDEX 01 01:07:70
  TRACK 67 AUDIO
    TITLE "5:cjc051_0821"
    INDEX 01 01:08:74
  TRACK 68 AUDIO
    TITLE "6:cjc051_0822"
    INDEX 01 01:09:73
  TRACK 69 AUDIO
    TITLE "5:cjc051_0823"
    INDEX 01 01:11:41
  TRACK 70 AUDIO
    TITLE "0:"
    INDEX 01 01:12:50
